<svg width="236" height="45" viewBox="0 0 236 45" fill="none" xmlns="http://www.w3.org/2000/svg">
<g clip-path="url(#clip0_165_370)">
<path d="M9.06237 25.1277H5.44307V31.1925C5.44307 31.5699 5.45154 31.9388 5.4713 32.3078C5.49106 32.6739 5.55882 33.0031 5.68304 33.2954C5.80444 33.5877 5.99076 33.8233 6.24485 33.9992C6.49611 34.178 6.86595 34.266 7.35153 34.266C7.65079 34.266 7.95851 34.2376 8.27753 34.1809C8.59655 34.1241 8.88451 34.0219 9.14707 33.8715V36.1845C8.84781 36.3548 8.45821 36.4711 7.98392 36.5364C7.50681 36.6017 7.13697 36.6357 6.87442 36.6357C5.90042 36.6357 5.14946 36.4995 4.61588 36.2271C4.0823 35.9546 3.68988 35.6027 3.43862 35.1685C3.18736 34.7371 3.03491 34.2518 2.98974 33.7154C2.94174 33.1791 2.91916 32.6398 2.91916 32.0949V25.1277H0V22.9282H2.91916V19.1764H5.44307V22.9282H9.06237V25.1277Z" fill="#1D305E"/>
<path d="M11.2362 29.6117C11.2362 28.6354 11.4197 27.7216 11.7839 26.8759C12.1481 26.0301 12.6478 25.2866 13.2858 24.648C13.921 24.0095 14.6692 23.5043 15.5302 23.1382C16.3913 22.7721 17.3173 22.5876 18.3082 22.5876C19.2992 22.5876 20.2252 22.7721 21.0862 23.1382C21.9473 23.5043 22.6954 24.0095 23.3307 24.648C23.9659 25.2866 24.4684 26.0301 24.8326 26.8759C25.1968 27.7216 25.3803 28.6354 25.3803 29.6117C25.3803 30.588 25.1968 31.5075 24.8326 32.3617C24.4684 33.2188 23.9659 33.9595 23.3307 34.5895C22.6954 35.2196 21.9473 35.719 21.0862 36.0851C20.2252 36.4512 19.2992 36.6357 18.3082 36.6357C17.3173 36.6357 16.3913 36.4512 15.5302 36.0851C14.6692 35.719 13.921 35.2196 13.2858 34.5895C12.6506 33.9595 12.1481 33.2159 11.7839 32.3617C11.4197 31.5075 11.2362 30.5908 11.2362 29.6117ZM13.9295 29.6117C13.9295 30.2871 14.0311 30.9143 14.2372 31.4876C14.4433 32.0609 14.7313 32.549 15.1068 32.9548C15.4794 33.3578 15.9396 33.6785 16.4817 33.9141C17.0237 34.1496 17.6335 34.266 18.3054 34.266C18.9773 34.266 19.5871 34.1496 20.1292 33.9141C20.6712 33.6785 21.1286 33.3607 21.5041 32.9548C21.8767 32.5518 22.1675 32.0609 22.3736 31.4876C22.5797 30.9143 22.6813 30.29 22.6813 29.6117C22.6813 28.9334 22.5769 28.309 22.3736 27.7358C22.1675 27.1625 21.8767 26.6744 21.5041 26.2685C21.1286 25.8655 20.6712 25.5448 20.1292 25.3093C19.5871 25.0737 18.9773 24.9574 18.3054 24.9574C17.6335 24.9574 17.0237 25.0766 16.4817 25.3093C15.9396 25.5448 15.4823 25.8655 15.1068 26.2685C14.7313 26.6715 14.4433 27.1625 14.2372 27.7358C14.0311 28.309 13.9295 28.9334 13.9295 29.6117Z" fill="#1D305E"/>
<path d="M28.7822 22.9282H31.3061V24.8467H31.3626C31.8482 24.1315 32.5173 23.5781 33.3699 23.1836C34.2197 22.7891 35.0948 22.5905 35.9926 22.5905C37.0202 22.5905 37.9519 22.7692 38.7847 23.1268C39.6176 23.4844 40.329 23.9839 40.9162 24.6225C41.5062 25.261 41.958 26.0102 42.277 26.8645C42.5932 27.7215 42.7541 28.6382 42.7541 29.6145C42.7541 30.5908 42.596 31.5386 42.277 32.3929C41.958 33.25 41.5062 33.9907 40.9162 34.6207C40.3262 35.2507 39.6147 35.7446 38.7847 36.1021C37.9519 36.4597 37.0202 36.6385 35.9926 36.6385C35.0384 36.6385 34.1406 36.437 33.2993 36.0312C32.458 35.6254 31.8115 35.0776 31.3626 34.3823H31.3061V44.2529H28.7822V22.931V22.9282ZM35.6849 24.9602C35.013 24.9602 34.4032 25.0794 33.8611 25.3121C33.3191 25.5476 32.8617 25.8683 32.4862 26.2713C32.1107 26.6743 31.8228 27.1653 31.6167 27.7386C31.4106 28.3119 31.309 28.9362 31.309 29.6145C31.309 30.2928 31.4106 30.9171 31.6167 31.4904C31.8228 32.0637 32.1107 32.5518 32.4862 32.9576C32.8589 33.3606 33.3191 33.6813 33.8611 33.9169C34.4032 34.1524 35.013 34.2688 35.6849 34.2688C36.3568 34.2688 36.9666 34.1524 37.5086 33.9169C38.0507 33.6813 38.508 33.3635 38.8835 32.9576C39.2562 32.5547 39.547 32.0637 39.7531 31.4904C39.9592 30.9171 40.0608 30.2928 40.0608 29.6145C40.0608 28.9362 39.9563 28.3119 39.7531 27.7386C39.547 27.1653 39.2562 26.6772 38.8835 26.2713C38.508 25.8683 38.0507 25.5476 37.5086 25.3121C36.9666 25.0765 36.3596 24.9602 35.6849 24.9602Z" fill="#1D305E"/>
<path d="M46.1702 14.9733H48.6941V24.9857H48.7505C49.0696 24.2705 49.6201 23.6944 50.4049 23.2517C51.1898 22.809 52.0988 22.5904 53.1265 22.5904C53.7617 22.5904 54.3743 22.6898 54.9643 22.8856C55.5544 23.0843 56.0682 23.3879 56.5086 23.8023C56.949 24.2166 57.2991 24.7473 57.5617 25.3972C57.8242 26.0471 57.9541 26.8134 57.9541 27.696V36.298H55.4302V28.3998C55.4302 27.7783 55.3455 27.2476 55.1789 26.8049C55.0095 26.3621 54.7865 26.0045 54.5042 25.7321C54.2247 25.4597 53.9 25.261 53.5358 25.139C53.1716 25.0169 52.7933 24.9545 52.4009 24.9545C51.8758 24.9545 51.3902 25.0396 50.9413 25.2071C50.4924 25.3774 50.1 25.6441 49.7641 26.0102C49.4281 26.3763 49.1656 26.8418 48.9792 27.4065C48.7929 27.9713 48.6997 28.6382 48.6997 29.4101V36.2923H46.1758V14.9733H46.1702Z" fill="#1D305E"/>
<path d="M63.9533 30.5425C63.9533 31.1242 64.0804 31.6578 64.3316 32.1374C64.5829 32.617 64.916 33.0257 65.3282 33.3634C65.7404 33.7011 66.2175 33.9651 66.7595 34.1524C67.3016 34.3397 67.8634 34.4333 68.4421 34.4333C69.227 34.4333 69.9102 34.2489 70.4889 33.8828C71.0677 33.5167 71.6013 33.0314 72.0897 32.4297L73.9981 33.897C72.595 35.7218 70.6301 36.6328 68.1062 36.6328C67.0588 36.6328 66.1102 36.454 65.2576 36.0964C64.405 35.7388 63.6851 35.245 63.0979 34.615C62.5078 33.9849 62.0561 33.2414 61.7371 32.3871C61.4181 31.5329 61.26 30.6049 61.26 29.6088C61.26 28.6126 61.4322 27.6874 61.7795 26.8304C62.1267 25.9761 62.6038 25.2326 63.2108 24.6025C63.8178 23.9725 64.5434 23.4787 65.3847 23.1211C66.226 22.7635 67.1435 22.5847 68.1344 22.5847C69.3117 22.5847 70.3083 22.7919 71.1213 23.2062C71.9344 23.6206 72.6035 24.1598 73.1286 24.8267C73.6509 25.4937 74.032 26.2457 74.2663 27.0829C74.5007 27.9201 74.6164 28.7715 74.6164 29.6343V30.5368H63.9533V30.5425ZM71.9203 28.5104C71.9005 27.9457 71.813 27.4292 71.6549 26.9581C71.4968 26.487 71.2569 26.0783 70.9407 25.7321C70.6216 25.383 70.2264 25.1105 69.7493 24.9147C69.2722 24.716 68.716 24.6196 68.0808 24.6196C67.4456 24.6196 66.8979 24.7388 66.3841 24.9715C65.8702 25.207 65.4355 25.5135 65.0798 25.8881C64.724 26.2656 64.4474 26.6828 64.2526 27.1425C64.0549 27.6023 63.959 28.0592 63.959 28.5104H71.9259H71.9203Z" fill="#1D305E"/>
<path d="M77.7924 24.5629C78.5039 23.9045 79.3254 23.4107 80.2627 23.0815C81.1972 22.7523 82.1317 22.5876 83.0689 22.5876C84.0062 22.5876 84.8786 22.7097 85.5787 22.9537C86.2817 23.1978 86.8548 23.527 87.3037 23.9414C87.7526 24.3557 88.0857 24.8297 88.3003 25.366C88.5148 25.9024 88.6221 26.4615 88.6221 27.0433V33.8687C88.6221 34.3398 88.6306 34.7712 88.6504 35.1656C88.6701 35.5601 88.6955 35.9376 88.7351 36.2952H86.4906C86.4342 35.6197 86.4059 34.9414 86.4059 34.2632H86.3495C85.7877 35.1287 85.1242 35.7389 84.3563 36.0965C83.5884 36.4541 82.7019 36.6329 81.6912 36.6329C81.073 36.6329 80.4858 36.5477 79.9239 36.3803C79.3621 36.21 78.8709 35.9574 78.4502 35.6197C78.0296 35.282 77.6965 34.862 77.4537 34.3653C77.2109 33.8687 77.0895 33.2897 77.0895 32.6313C77.0895 31.7657 77.2815 31.042 77.6654 30.4602C78.0494 29.8785 78.5716 29.4017 79.2379 29.0356C79.9014 28.6695 80.6777 28.4055 81.567 28.2466C82.4563 28.0877 83.4049 28.0082 84.4156 28.0082H86.2676V27.4435C86.2676 27.1057 86.2027 26.7652 86.07 26.4275C85.9401 26.0897 85.7425 25.7832 85.4799 25.5108C85.2174 25.2383 84.8899 25.0226 84.4975 24.8609C84.1051 24.702 83.6364 24.6225 83.0944 24.6225C82.6088 24.6225 82.1825 24.6707 81.8183 24.7644C81.4541 24.858 81.121 24.9772 80.8217 25.1163C80.5225 25.2582 80.2514 25.4228 80.0086 25.6101C79.7658 25.7974 79.5315 25.9762 79.3085 26.1465L77.7924 24.5657V24.5629ZM84.9181 29.8643C84.3196 29.8643 83.707 29.8983 83.0802 29.9636C82.4535 30.0289 81.8832 30.1566 81.3694 30.3439C80.8556 30.5312 80.4349 30.7951 80.1074 31.1328C79.78 31.4706 79.6162 31.9048 79.6162 32.4298C79.6162 33.2017 79.8731 33.7552 80.3869 34.0929C80.9008 34.4306 81.5981 34.6009 82.4761 34.6009C83.1678 34.6009 83.7578 34.4845 84.2434 34.249C84.729 34.0134 85.1214 33.7097 85.4207 33.3323C85.7199 32.9577 85.9345 32.5377 86.0672 32.0779C86.197 31.6181 86.2648 31.1612 86.2648 30.71V29.8643H84.9181Z" fill="#1D305E"/>
<path d="M92.7271 14.9733H95.251V36.2951H92.7271V14.9733Z" fill="#1D305E"/>
<path d="M106.803 25.1277H103.184V31.1925C103.184 31.5699 103.193 31.9388 103.212 32.3078C103.232 32.6739 103.3 33.0031 103.424 33.2954C103.545 33.5877 103.732 33.8233 103.986 33.9992C104.237 34.178 104.607 34.266 105.093 34.266C105.392 34.266 105.699 34.2376 106.019 34.1809C106.338 34.1241 106.625 34.0219 106.888 33.8715V36.1845C106.589 36.3548 106.199 36.4711 105.725 36.5364C105.248 36.6017 104.878 36.6357 104.615 36.6357C103.641 36.6357 102.89 36.4995 102.357 36.2271C101.823 35.9546 101.431 35.6027 101.18 35.1685C100.928 34.7371 100.776 34.2518 100.731 33.7154C100.683 33.1791 100.66 32.6398 100.66 32.0949V25.1277H97.741V22.9282H100.66V19.1764H103.184V22.9282H106.803V25.1277Z" fill="#1D305E"/>
<path d="M109.883 14.9733H112.407V24.9857H112.464C112.783 24.2705 113.333 23.6944 114.118 23.2517C114.903 22.809 115.812 22.5904 116.84 22.5904C117.475 22.5904 118.088 22.6898 118.678 22.8856C119.268 23.0843 119.781 23.3879 120.222 23.8023C120.662 24.2166 121.012 24.7473 121.275 25.3972C121.537 26.0471 121.667 26.8134 121.667 27.696V36.298H119.143V28.3998C119.143 27.7783 119.059 27.2476 118.892 26.8049C118.723 26.3621 118.5 26.0045 118.217 25.7321C117.938 25.4597 117.613 25.261 117.249 25.139C116.885 25.0169 116.507 24.9545 116.114 24.9545C115.589 24.9545 115.103 25.0396 114.655 25.2071C114.206 25.3774 113.813 25.6441 113.477 26.0102C113.141 26.3763 112.879 26.8418 112.692 27.4065C112.506 27.9713 112.413 28.6382 112.413 29.4101V36.2923H109.889V14.9733H109.883Z" fill="#1D305E"/>
<path d="M135.512 34.5753H135.456C134.987 35.3075 134.366 35.8354 133.59 36.156C132.813 36.4767 131.995 36.6357 131.133 36.6357C130.498 36.6357 129.886 36.5449 129.296 36.3689C128.706 36.1901 128.186 35.9233 127.737 35.5657C127.288 35.2082 126.933 34.7654 126.67 34.2404C126.407 33.7154 126.278 33.1024 126.278 32.4071C126.278 31.6181 126.422 30.9512 126.712 30.4034C127.003 29.8585 127.396 29.4073 127.89 29.0497C128.384 28.6921 128.951 28.414 129.586 28.2182C130.222 28.0195 130.882 27.8748 131.565 27.7811C132.249 27.6875 132.932 27.6307 133.615 27.6108C134.298 27.591 134.928 27.5825 135.509 27.5825C135.509 26.8304 135.244 26.2344 134.71 25.7917C134.177 25.349 133.547 25.1276 132.816 25.1276C132.085 25.1276 131.492 25.2723 130.922 25.5647C130.351 25.857 129.84 26.2543 129.392 26.7623L127.147 24.4493C127.932 23.7171 128.849 23.1665 129.897 22.8004C130.944 22.4343 132.028 22.2499 133.152 22.2499C134.386 22.2499 135.402 22.406 136.195 22.7153C136.992 23.0247 137.627 23.4816 138.104 24.0832C138.581 24.6849 138.911 25.4228 139.1 26.2969C139.287 27.171 139.38 28.1813 139.38 29.3278V36.2951H135.507V34.5753H135.512ZM134.473 30.2871C134.154 30.2871 133.759 30.3013 133.282 30.3296C132.805 30.358 132.347 30.4375 131.907 30.568C131.467 30.6986 131.094 30.8972 130.783 31.1612C130.476 31.4251 130.32 31.7912 130.32 32.2623C130.32 32.7703 130.535 33.1478 130.967 33.389C131.396 33.6331 131.845 33.7551 132.314 33.7551C132.726 33.7551 133.121 33.6983 133.505 33.5848C133.889 33.4713 134.23 33.3124 134.53 33.1052C134.829 32.898 135.066 32.6341 135.244 32.3162C135.422 31.9956 135.509 31.6209 135.509 31.1867V30.2842H134.47L134.473 30.2871Z" fill="#8CC040"/>
<path d="M156.85 36.2951H152.976V34.4902H152.92C152.75 34.7342 152.53 34.984 152.259 35.2366C151.988 35.4892 151.669 35.7219 151.305 35.9262C150.941 36.1334 150.537 36.3008 150.099 36.4342C149.659 36.5648 149.207 36.6329 148.739 36.6329C147.728 36.6329 146.813 36.4597 145.989 36.1107C145.165 35.7644 144.459 35.2735 143.872 34.6434C143.282 34.0134 142.83 33.267 142.511 32.4014C142.192 31.5358 142.034 30.5879 142.034 29.5521C142.034 28.5928 142.178 27.6762 142.468 26.8021C142.759 25.928 143.169 25.1532 143.702 24.4749C144.236 23.7966 144.885 23.2574 145.653 22.8544C146.421 22.4514 147.29 22.2471 148.262 22.2471C149.14 22.2471 149.958 22.3833 150.718 22.6557C151.474 22.9282 152.095 23.3936 152.584 24.052H152.64V14.9705H156.85V36.2923V36.2951ZM152.976 29.4414C152.976 28.4084 152.683 27.5712 152.093 26.9326C151.503 26.2941 150.675 25.9734 149.608 25.9734C148.541 25.9734 147.714 26.2941 147.124 26.9326C146.534 27.5712 146.24 28.4084 146.24 29.4414C146.24 30.4744 146.534 31.3116 147.124 31.953C147.714 32.5916 148.541 32.9123 149.608 32.9123C150.675 32.9123 151.503 32.5916 152.093 31.953C152.683 31.3145 152.976 30.4773 152.976 29.4414Z" fill="#8CC040"/>
<path d="M159.009 22.5876H163.555L167.005 31.8963H167.061L170.26 22.5876H174.497L169.111 36.2952H164.65L159.009 22.5876Z" fill="#8CC040"/>
<path d="M176.502 22.5876H180.711V36.2952H176.502V22.5876Z" fill="#8CC040"/>
<path d="M191.916 26.6233C191.298 25.8514 190.485 25.4654 189.474 25.4654C189.119 25.4654 188.774 25.5505 188.435 25.7208C188.099 25.8911 187.93 26.1806 187.93 26.5949C187.93 26.9326 188.102 27.1824 188.449 27.3413C188.797 27.5002 189.234 27.6421 189.768 27.7642C190.301 27.8862 190.872 28.0196 191.479 28.1586C192.086 28.3005 192.656 28.5219 193.19 28.8227C193.723 29.1236 194.161 29.5322 194.508 30.0487C194.855 30.5653 195.027 31.2577 195.027 32.1205C195.027 32.9832 194.835 33.7325 194.452 34.3057C194.068 34.879 193.576 35.3388 192.978 35.6878C192.379 36.0369 191.705 36.281 190.956 36.42C190.208 36.5619 189.469 36.6329 188.74 36.6329C187.786 36.6329 186.823 36.4967 185.849 36.2242C184.875 35.9518 184.054 35.4665 183.379 34.7712L185.931 31.9218C186.324 32.41 186.758 32.7817 187.235 33.0372C187.713 33.2897 188.269 33.4174 188.904 33.4174C189.39 33.4174 189.83 33.3465 190.222 33.2074C190.615 33.0655 190.812 32.8073 190.812 32.4327C190.812 32.0751 190.64 31.8083 190.293 31.6295C189.946 31.4507 189.508 31.3003 188.975 31.1783C188.441 31.0562 187.871 30.9257 187.264 30.7838C186.657 30.6419 186.086 30.4319 185.553 30.1481C185.019 29.8671 184.579 29.467 184.234 28.9504C183.887 28.4339 183.715 27.7415 183.715 26.8787C183.715 26.0699 183.879 25.3746 184.206 24.7928C184.534 24.211 184.963 23.7314 185.496 23.3539C186.03 22.9793 186.643 22.7012 187.334 22.5224C188.026 22.3436 188.726 22.2556 189.438 22.2556C190.335 22.2556 191.242 22.3862 192.159 22.6501C193.077 22.914 193.853 23.3823 194.488 24.0606L191.908 26.6261L191.916 26.6233Z" fill="#8CC040"/>
<path d="M196.987 29.4414C196.987 28.3516 197.184 27.364 197.577 26.4785C197.969 25.5959 198.508 24.8382 199.189 24.2081C199.872 23.5781 200.677 23.0928 201.603 22.7551C202.529 22.4174 203.514 22.2471 204.561 22.2471C205.609 22.2471 206.597 22.4174 207.52 22.7551C208.446 23.0928 209.251 23.5781 209.934 24.2081C210.617 24.8382 211.153 25.5959 211.546 26.4785C211.938 27.364 212.136 28.3488 212.136 29.4414C212.136 30.534 211.938 31.5188 211.546 32.4043C211.153 33.2897 210.614 34.0446 209.934 34.6746C209.251 35.3047 208.446 35.7871 207.52 36.1277C206.594 36.4683 205.606 36.6357 204.561 36.6357C203.517 36.6357 202.526 36.4654 201.603 36.1277C200.679 35.79 199.872 35.3047 199.189 34.6746C198.506 34.0446 197.969 33.2869 197.577 32.4043C197.184 31.5216 196.987 30.534 196.987 29.4414ZM201.196 29.4414C201.196 30.4744 201.49 31.3116 202.08 31.953C202.67 32.5916 203.497 32.9123 204.561 32.9123C205.626 32.9123 206.456 32.5916 207.046 31.953C207.636 31.3145 207.929 30.4773 207.929 29.4414C207.929 28.4055 207.636 27.5711 207.046 26.9326C206.456 26.2941 205.628 25.9734 204.561 25.9734C203.494 25.9734 202.667 26.2941 202.08 26.9326C201.49 27.5711 201.196 28.4084 201.196 29.4414Z" fill="#8CC040"/>
<path d="M214.993 22.5876H219.202V24.7871H219.259C219.708 23.9414 220.241 23.3056 220.857 22.8828C221.472 22.4599 222.248 22.2471 223.186 22.2471C223.428 22.2471 223.671 22.2556 223.914 22.2754C224.157 22.2953 224.383 22.3322 224.589 22.389V26.2515C224.29 26.1578 223.996 26.0869 223.705 26.0415C223.414 25.9961 223.112 25.9705 222.793 25.9705C221.989 25.9705 221.353 26.084 220.885 26.3082C220.416 26.5324 220.058 26.8503 219.803 27.2533C219.552 27.6591 219.388 28.1416 219.312 28.7063C219.239 29.2711 219.199 29.8898 219.199 30.5681V36.2923H214.99V22.5848L214.993 22.5876Z" fill="#8CC040"/>
<path d="M236 19.5027H225.602V22.6245H236V19.5027Z" fill="#8CC040"/>
<path d="M178.455 21.0324C182.278 4.22296 202.113 -4.18034 217.539 2.06041C222.183 3.90511 226.616 6.94176 229.281 11.3208C231.076 14.2581 231.839 17.7318 232.104 21.0977C232.242 22.7636 232.279 24.4153 232.282 26.0528L229.459 26.0159C229.665 19.7212 229.196 13.5231 224.439 8.99931C210.176 -4.89267 183.822 1.41902 178.455 21.0324Z" fill="#8CC040"/>
</g>
<defs>
<clipPath id="clip0_165_370">
<rect width="236" height="44.25" fill="white"/>
</clipPath>
</defs>
</svg>
